<svg xmlns="http://www.w3.org/2000/svg" viewBox="0 0 400 400" width="400" height="400">
  <!-- Anchor Symbol -->
  <g fill="#1b365d" transform="translate(200, 120)">
    <!-- Anchor Ring -->
    <circle cx="0" cy="-35" r="12" fill="none" stroke="#1b365d" stroke-width="8"/>
    
    <!-- Anchor Shaft -->
    <rect x="-4" y="-35" width="8" height="90" rx="4"/>
    
    <!-- Anchor Arms -->
    <path d="M -25 25 Q -35 35 -25 45 Q -15 55 0 45 L 0 25 Z"/>
    <path d="M 25 25 Q 35 35 25 45 Q 15 55 0 45 L 0 25 Z"/>
    
    <!-- Anchor Flukes -->
    <path d="M -25 45 Q -45 35 -55 55 Q -45 75 -25 65 Z"/>
    <path d="M 25 45 Q 45 35 55 55 Q 45 75 25 65 Z"/>
    
    <!-- Crossbar -->
    <rect x="-30" y="15" width="60" height="8" rx="4"/>
  </g>
  
  <!-- ANCHOR Text -->
  <text x="200" y="290" text-anchor="middle" font-family="Arial, sans-serif" font-size="42" font-weight="bold" fill="#1b365d" letter-spacing="8px">ANCHOR</text>
  
  <!-- Underline -->
  <rect x="130" y="305" width="140" height="3" fill="#1b365d"/>
  
  <!-- BUILDERS Text -->
  <text x="200" y="340" text-anchor="middle" font-family="Arial, sans-serif" font-size="24" font-weight="normal" fill="#1b365d" letter-spacing="6px">BUILDERS</text>
</svg>